<?xml version="1.0" encoding="UTF-8"?>
<svg id="logo02" data-name="logo02" xmlns="http://www.w3.org/2000/svg" viewBox="0 0 227.92 126.11">
  <g>
    <g>
      <path d="M0,4.05v40.48h.07l8.19.4V4.05H0Z" fill="currentColor"/>
      <path d="M41.95.89l-21,44.65,8.51.42.42-.93h23.09l.92,2.11,8.96.44L41.95.89ZM33.29,37.25l8.34-18.3,8.02,18.3h-16.36Z" fill="currentColor"/>
      <path d="M121.81,0l-18.95,41.95L84.07,0l-9.4,48.15,8.14.4,4.02-23.12,10.54,23.82,9.87.48,10.85-24.22,4.22,24.95,8.44.41L121.81,0Z" fill="currentColor"/>
      <path d="M164.1.89l-23.73,50.45,8.61.42,3.05-6.73h23.08l3.55,8.17,9.05.44L164.1.89ZM155.43,37.25l8.34-18.3,8.02,18.3h-16.36Z" fill="currentColor"/>
      <path d="M215.21,25.92l-5.43-2.19c-5.26-2.11-5.83-4.94-5.83-6.56,0-3.48,2.59-6.48,7.61-6.48,2.35,0,4.13.57,5.83,1.94,1.22,1.06,1.95,2.19,2.43,3.4l6.65-3.88c-1.14-2.27-2.68-4.13-4.13-5.43-1.71-1.46-5.03-3.64-10.86-3.64-10.12,0-15.79,6.96-15.79,14.25,0,8.1,6.56,11.83,11.01,13.69l5.19,2.19c3.56,1.45,7.77,3.72,7.77,9.23s-3.89,9.07-8.91,9.07c-3.24,0-5.5-1.3-7.04-3.24-1.3-1.7-2.27-4.21-2.27-6.88l-8.18,1.78c.32,3.72,1.62,7.29,4.53,10.53.14.15.27.3.42.45l23.69,1.15c3.76-3.05,6.02-7.78,6.02-13.51,0-6.15-2.75-11.82-12.71-15.87Z" fill="currentColor"/>
    </g>
    <polygon points="227.87 57 227.87 60.27 184.76 58.07 180.69 57.86 146.99 56.14 138.32 55.7 131.54 55.35 123.07 54.92 105.32 54.02 99.34 53.71 82.07 52.83 73.84 52.41 64.81 51.95 55.78 51.49 27.61 50.05 19.04 49.61 8.26 49.06 0 48.64 0 45.95 8.26 46.35 20.3 46.93 28.83 47.35 54.52 48.59 63.5 49.03 74.39 49.56 82.57 49.95 98.01 50.7 106.62 51.12 122.55 51.89 131.01 52.3 139.72 52.73 148.35 53.14 179.29 54.64 188.35 55.08 199.82 55.64 220.02 56.62 227.87 57" fill="currentColor"/>
  </g>
  <g>
    <g>
      <path d="M72.64,69c-6.8,0-10.69,3.07-12.64,5.26-2.1,2.35-4.29,6.56-4.53,11.83h7.94c.32-5.11,3.48-9.8,9.55-9.8s8.99,4.21,8.99,8.74c0,3.16-1.29,5.51-2.83,7.78-1.78,2.59-4.62,6.15-6.48,8.42l-10.04,12.17,8.42.41,1.09.05,6.36-7.53c3.24-3.8,5.75-6.8,7.7-9.71,2.18-3.24,3.88-6.89,3.88-11.34,0-8.43-5.91-16.28-17.41-16.28Z" fill="currentColor"/>
      <path d="M132.42,74.83c-3.41-3.89-7.46-5.83-12.23-5.83s-8.83,1.94-12.23,5.83c-5.67,6.48-6.89,15.14-6.89,22.11,0,5.84.84,12.68,4.37,18.54l1.01.05,9.15.44c-.92-.67-1.85-1.61-2.7-2.91-3-4.54-3.73-11.42-3.73-16.2s.73-11.66,3.73-16.12c2.35-3.56,5.18-4.45,7.29-4.45s4.94.89,7.29,4.45c2.99,4.46,3.72,11.42,3.72,16.12s-.73,11.66-3.72,16.2c-1.05,1.59-2.19,2.65-3.33,3.33l8.95.43.96.05c4.27-6.14,5.24-13.62,5.24-19.93,0-6.97-1.21-15.63-6.88-22.11Z" fill="currentColor"/>
      <path d="M162.06,116.3l8.43-9.97c3.24-3.8,5.75-6.8,7.69-9.71,2.19-3.24,3.89-6.89,3.89-11.34,0-8.43-5.91-16.28-17.42-16.28-6.8,0-10.69,3.07-12.63,5.26-2.11,2.35-4.29,6.56-4.54,11.83h7.94c.33-5.11,3.48-9.8,9.56-9.8s8.99,4.21,8.99,8.74c0,3.16-1.3,5.51-2.84,7.78-1.78,2.59-4.61,6.15-6.48,8.42l-13.57,16.46,31.15,1.52v-2.91h-20.17Z" fill="currentColor"/>
      <path d="M223.13,93.46c-2.18-2.27-6.15-5.02-12.47-5.02-1.13,0-2.18.08-3.4.32l12.88-16.28-6-4.46-14.98,19.28c-2.43,3.16-4.53,5.59-6.56,9.64-1.7,3.32-2.59,6.4-2.59,10.37,0,5.26,1.86,9.23,4.7,12.23.09.1.19.19.28.28l1.81.09,22.2,1.07,1.97.1c.55-.41,1.08-.87,1.6-1.38,3.64-3.57,5.34-8.83,5.34-13.61s-1.86-9.56-4.78-12.63ZM216.66,114.52c-2.03,2.02-5.11,2.99-7.62,2.99-2.83,0-6.07-1.38-7.77-2.99-2.11-2.03-3.16-5.27-3.16-8.02,0-3.41,1.38-6.32,3.16-8.02,1.94-1.86,5.02-3,7.77-3s5.75,1.14,7.62,3c2.02,2.02,3.15,5.26,3.15,8.02s-1.13,5.99-3.15,8.02Z" fill="currentColor"/>
    </g>
    <polygon points="227.92 122.84 227.92 126.11 182.23 123.79 147.51 122.02 130.21 121.14 108.99 120.06 90.21 119.11 59.19 117.53 55.47 117.34 55.47 114.48 61.47 114.77 70.95 115.23 106.38 116.95 133.03 118.24 149.95 119.06 182.23 120.63 196.73 121.33 218.93 122.4 227.92 122.84" fill="currentColor"/>
  </g>
</svg>